# AST/ASF file generated using VICON BodyLanguage
# -----------------------------------------------
:version 1.10
:name VICON
:units
  mass 1.0
  length 0.45
  angle deg
:documentation
   .ast/.asf automatically generated from VICON data using
   VICON BodyBuilder and BodyLanguage model FoxedUp or BRILLIANT.MOD
:root
   order TX TY TZ RX RY RZ
   axis XYZ
   position 0 0 0  
   orientation 0 0 0 
:bonedata
  begin
     id 1 
     name lhipjoint
     direction 0.522423 -0.726805 0.445902 
     length 2.25074 
     axis 0 0 0  XYZ
  end
  begin
     id 2 
     name lfemur
     direction 0.34202 -0.939693 0  
     length 6.54609  
     axis 0 0 20  XYZ
    dof rx ry rz
    limits (-160.0 20.0)
           (-70.0 70.0)
           (-60.0 70.0)
  end
  begin
     id 3 
     name ltibia
     direction 0.34202 -0.939693 0   
     length 7.7528   
     axis 0 0 20   XYZ
    dof rx
    limits (-10.0 170.0)
  end
  begin
     id 4 
     name lfoot
     direction 0.143696 -0.394801 0.90746   
     length 1.73269   
     axis -90 7.62852e-016 20   XYZ
    dof rx rz
    limits (-45.0 90.0)
           (-70.0 20.0)
  end
  begin
     id 5 
     name ltoes
     direction 1.53633e-011 -4.21912e-011 1   
     length 0.858383   
     axis -90 7.62852e-016 20   XYZ
    dof rx
    limits (-90.0 20.0)
  end
  begin
     id 6 
     name rhipjoint
     direction -0.515943 -0.73016 0.447961   
     length 2.2404  
     axis 0 0 0  XYZ 
  end
  begin
     id 7 
     name rfemur
     direction -0.34202 -0.939693 0   
     length 6.84377   
     axis 0 0 -20   XYZ
    dof rx ry rz
    limits (-160.0 20.0)
           (-70.0 70.0)
           (-70.0 60.0)
  end
  begin
     id 8 
     name rtibia
     direction -0.34202 -0.939693 0   
     length 7.57596   
     axis 0 0 -20   XYZ
    dof rx
    limits (-10.0 170.0)
 end
 begin
     id 9 
     name rfoot
     direction -0.0999372 -0.274575 0.956358   
     length 1.78783  
     axis -90 -7.62852e-016 -20   XYZ
    dof rx rz
    limits (-45.0 90.0)
           (-20.0 70.0)
  end
  begin
     id 10 
     name rtoes
     direction -1.53535e-011 -4.21895e-011 1   
     length 0.898614   
     axis -90 -7.62852e-016 -20   XYZ
    dof rx
    limits (-90.0 20.0)
  end
  begin
     id 11 
     name lowerback
     direction -0.011775 0.996164 -0.0867116   
     length 1.91499   
     axis 0 0 0   XYZ
    dof rx ry rz
    limits (-20.0 45.0)
           (-30.0 30.0)
           (-30.0 30.0)
  end
  begin
     id 12 
     name upperback
     direction -0.00189771 0.999673 -0.0254833   
     length 1.92213   
     axis 0 0 0   XYZ
    dof rx ry rz
    limits (-20.0 45.0)
           (-30.0 30.0)
           (-30.0 30.0)
  end
  begin
     id 13 
     name thorax
     direction 0.00335995 0.999878 0.0152401   
     length 1.93138   
     axis 0 0 0   XYZ
    dof rx ry rz
    limits (-20.0 45.0)
           (-30.0 30.0)
           (-30.0 30.0)
  end
  begin
     id 14 
     name lowerneck
     direction 0.00233191 0.998509 0.0545404   
     length 1.59408   
     axis 0 0 0   XYZ
    dof rx ry rz
    limits (-20.0 45.0)
           (-30.0 30.0)
           (-30.0 30.0)
  end
  begin
     id 15 
     name upperneck
     direction 0.07881 0.9956 -0.0506934   
     length 1.59344   
     axis 0 0 0   XYZ
    dof rx ry rz
    limits (-20.0 45.0)
           (-30.0 30.0)
           (-30.0 30.0)
  end
  begin
     id 16
     name head
     direction 0.0261681 0.999378 -0.0236299  
     length 1.60935  
     axis 0 0 0   XYZ
    dof rx ry rz
    limits (-20.0 45.0)
           (-30.0 30.0)
           (-30.0 30.0)
  end
  begin
     id 17 
     name lclavicle
     direction 0.96643 0.252035 0.0499195  
     length 3.82153  
     axis 0 0 0   XYZ
    dof ry rz
    limits (-20.0 10.0)
           (0.0 20.0)
  end
  begin
     id 18 
     name lhumerus
     direction 1 -4.48967e-011 -2.01614e-018   
     length 4.87796   
     axis 180 -30 -90   XYZ
    dof rx ry rz
    limits (-60.0 90.0)
           (-90.0 90.0)
           (-90.0 90.0)
  end
  begin
     id 19
     name lradius
     direction 1 -4.48958e-011 3.1409e-027   
     length 3.23169   
     axis 180 -30 -90   XYZ
    dof rx
    limits (-10.0 170.0)
  end
  begin
     id 20
     name lwrist
     direction 1 -4.48924e-011 1.0365e-027   
     length 1.61584   
     axis -2.56395e-016 90 90   XYZ
    dof ry
    limits (-180.0 0.0)
 end
  begin
     id 21 
     name lhand
     direction 1 -4.49055e-011 2.09488e-027   
     length 0.731324   
     axis -1.32723e-015 90 90   XYZ
    dof rx rz
    limits (-90.0 90.0)
           (-45.0 45.0)
  end
  begin
     id 22 
     name lfingers
     direction 1 -4.48935e-011 4.14981e-027   
     length 0.589612   
     axis -2.6545e-015 90 90   XYZ
    dof rx
    limits (0.0 90.0)
  end
  begin
     id 23
     name lthumb
     direction 0.707107 -6.35097e-011 0.707107   
     length 0.846569   
     axis -90 45 5.05613e-014   XYZ
    dof rx rz
    limits (-45.0 45.0)
           (-45.0 45.0)
  end
  begin
     id 24 
     name rclavicle
     direction -0.979337 0.201016 0.0221522   
     length 3.73827  
     axis 0 0 0   XYZ 
    dof ry rz
    limits (-10.0 20.0)
           (-20.0 0.0)
  end
  begin
     id 25 
     name rhumerus
     direction -1 -4.48971e-011 1.65907e-027  
     length 4.9143   
     axis 180 30 90   XYZ
    dof rx ry rz
    limits (-90.0 60.0)
           (-90.0 90.0)
           (-90.0 90.0)
  end
  begin
     id 26 
     name rradius
     direction -1 -4.4894e-011 2.17871e-028   
     length 3.29093   
     axis 180 30 90   XYZ
    dof rx
    limits (-10.0 170.0)
  end
  begin
     id 27 
     name rwrist
     direction -1 -4.48971e-011 1.04038e-027   
     length 1.64546   
     axis -2.56395e-016 -90 -90   XYZ
    dof ry
    limits (-180.0 0.0)
  end
  begin
     id 28
     name rhand
     direction -1 -4.49017e-011 2.08843e-027   
     length 0.54512   
     axis -1.32723e-015 -90 -90   XYZ
    dof rx rz
    limits (-90.0 90.0)
           (-45.0 45.0)
  end
  begin
     id 29
     name rfingers
     direction -1 -4.48918e-011 4.1439e-027   
     length 0.43949   
     axis -2.6545e-015 -90 -90   XYZ
    dof rx
    limits (0.0 90.0)
  end
  begin
     id 30
     name rthumb
     direction -0.707107 -6.35065e-011 0.707107   
     length 0.631022   
     axis -90 -45 -5.05613e-014   XYZ
    dof rx rz
    limits (-45.0 45.0)
           (-45.0 45.0)
  end
:hierarchy
  begin
    root lhipjoint rhipjoint lowerback
    lhipjoint lfemur
    lfemur ltibia
    ltibia lfoot
    lfoot ltoes
    rhipjoint rfemur
    rfemur rtibia
    rtibia rfoot
    rfoot rtoes
    lowerback upperback
    upperback thorax
    thorax lowerneck lclavicle rclavicle
    lowerneck upperneck
    upperneck head
    lclavicle lhumerus
    lhumerus lradius
    lradius lwrist
    lwrist lhand lthumb
    lhand lfingers
    rclavicle rhumerus
    rhumerus rradius
    rradius rwrist
    rwrist rhand rthumb
    rhand rfingers
  end

#!OML:ASF H:\BreakDance\Project 1\Capture day 1\Session 1\Male.ASF
:FULLY-SPECIFIED
:DEGREES
985
root 11.4731 13.1823 2.40105 75.9341 -43.3973 -12.3233
lowerback 49.8226 14.7457 -10.1115
upperback 12.2945 10.8918 0.26618
thorax -7.24351 4.31123 0.23371
lowerneck 15.6176 21.4913 -13.0801
upperneck -51.0576 39.1968 -6.32905
head -26.8372 15.778 -11.4557
rclavicle -1.87653e-013 2.22639e-014
rhumerus 82.2876 -18.0313 -44.4646
rradius 29.7023
rwrist 3.42605
rhand -42.133 -399.48
rfingers 7.12502
rthumb -15.0233 1011.09
lclavicle -1.87653e-013 2.22639e-014
lhumerus 77.2368 9.6631 35.8442
lradius 23.1932
lwrist 2.78173
lhand -23.7172 -7.1848
lfingers 7.12502
lthumb 2.7505 -337.223
rfemur -109.549 -7.17681 31.8817
rtibia 86.8632
rfoot -30.6309 -2.74467
rtoes -24.5307
lfemur -112.072 31.6064 -30.0937
ltibia 85.3043
lfoot -41.0163 -2.31837
ltoes -41.8351
986
root 11.54 13.2092 2.36176 75.4322 -43.7359 -12.0059
lowerback 50.7819 14.384 -9.60054
upperback 12.0695 10.5403 0.0706318
thorax -7.52157 4.1699 -0.103712
lowerneck 15.6546 21.5462 -12.6923
upperneck -51.0948 38.9866 -6.79569
head -26.411 15.8043 -11.5308
rclavicle 1.09729e-013 -8.42847e-014
rhumerus 82.8961 -18.2228 -45.4281
rradius 29.9182
rwrist 3.30818
rhand -39.5853 -395.587
rfingers 7.12502
rthumb -12.5679 1014.81
lclavicle 1.09729e-013 -8.42847e-014
lhumerus 77.4008 9.98733 36.3322
lradius 22.9704
lwrist 2.31358
lhand -23.7141 -7.45408
lfingers 7.12502
lthumb 2.75349 -337.492
rfemur -109.501 -7.52129 31.7302
rtibia 86.4464
rfoot -30.51 -2.46217
rtoes -23.919
lfemur -111.781 31.0264 -30.1656
ltibia 85.1706
lfoot -41.0603 -1.54904
ltoes -41.5629
987
root 11.6071 13.2385 2.32439 74.9239 -44.0545 -11.6759
lowerback 51.6399 14.1253 -9.20654
upperback 11.8732 10.3005 0.0528034
thorax -7.79874 4.06473 -0.243304
lowerneck 15.7842 21.602 -12.3495
upperneck -51.0341 38.7352 -7.19215
head -25.9975 15.8099 -11.5736
rclavicle -4.29375e-014 -5.08889e-014
rhumerus 83.4834 -18.4226 -46.2771
rradius 30.1572
rwrist 2.9435
rhand -36.5113 -391.392
rfingers 7.12502
rthumb -9.60318 1018.85
lclavicle -4.29375e-014 -5.08889e-014
lhumerus 77.6436 10.2452 37.2111
lradius 22.6569
lwrist 1.71439
lhand -23.7076 -7.74762
lfingers 7.12502
lthumb 2.75976 -337.786
rfemur -109.421 -7.8693 31.5541
rtibia 85.9841
rfoot -30.3844 -2.18409
rtoes -23.2927
lfemur -111.451 30.4261 -30.1615
ltibia 85.0199
lfoot -41.0672 -0.841485
ltoes -41.2108
988
root 11.6744 13.2704 2.28884 74.4081 -44.3535 -11.3459
lowerback 52.5153 13.8398 -8.77943
upperback 11.6796 10.0521 0.0335225
thorax -8.06908 3.95507 -0.391234
lowerneck 16.0503 21.6261 -11.8928
upperneck -51.1069 38.3821 -7.78962
head -25.6296 15.7795 -11.7367
rclavicle 1.74931e-014 -3.18055e-014
rhumerus 84.145 -18.6295 -47.2783
rradius 30.3593
rwrist 2.41835
rhand -32.9799 -387.233
rfingers 7.12502
rthumb -6.19483 1022.88
lclavicle 1.74931e-014 -3.18055e-014
lhumerus 77.9214 10.5001 38.1891
lradius 22.3201
lwrist 1.07408
lhand -23.7224 -8.04446
lfingers 7.12502
lthumb 2.74541 -338.082
rfemur -109.291 -8.2117 31.3624
rtibia 85.4712
rfoot -30.2651 -1.95844
rtoes -22.803
lfemur -111.063 29.8215 -30.0811
ltibia 84.8331
lfoot -41.0575 -0.190757
ltoes -40.9004
989
root 11.7415 13.3049 2.25517 73.8848 -44.6368 -11.0211
lowerback 53.4152 13.5378 -8.32817
upperback 11.4881 9.80318 0.0208937
thorax -8.33561 3.84362 -0.539138
lowerneck 16.1755 21.6571 -11.5956
upperneck -51.013 38.1308 -8.10915
head -25.2798 15.7724 -11.7564
rclavicle -1.27222e-013 -2.22639e-014
rhumerus 84.8652 -18.838 -48.351
rradius 30.5074
rwrist 1.71505
rhand -29.2662 -383.47
rfingers 7.12502
rthumb -2.60877 1026.57
lclavicle -1.27222e-013 -2.22639e-014
lhumerus 78.2195 10.7512 39.2683
lradius 21.963
lwrist 0.384951
lhand -23.7429 -8.35083
lfingers 7.12502
lthumb 2.72566 -338.389
rfemur -109.1 -8.54465 31.1614
rtibia 84.9064
rfoot -30.1647 -1.80148
rtoes -22.5134
lfemur -110.61 29.2203 -29.9422
ltibia 84.5963
lfoot -41.0442 0.413228
ltoes -40.6981
990
root 11.8073 13.3416 2.22322 73.3532 -44.9131 -10.7084
lowerback 54.3478 13.2415 -7.88168
upperback 11.2947 9.56584 0.0293196
thorax -8.60644 3.73421 -0.665442
lowerneck 16.1212 21.7192 -11.4988
upperneck -50.7129 38.0207 -8.11276
head -24.9236 15.8061 -11.6058
rclavicle 9.54166e-014 -1.4074e-013
rhumerus 85.6012 -19.0402 -49.3554
rradius 30.6033
rwrist 0.804597
rhand -25.7193 -380.299
rfingers 7.12502
rthumb 0.816893 1029.72
lclavicle 9.54166e-014 -1.4074e-013
lhumerus 78.5245 11.0029 40.4463
lradius 21.5871
lwrist -0.36791
lhand -23.7448 -8.67686
lfingers 7.12502
lthumb 2.72381 -338.715
rfemur -108.843 -8.86292 30.9573
rtibia 84.2938
rfoot -30.0849 -1.73774
rtoes -22.4858
lfemur -110.09 28.6373 -29.77
ltibia 84.3008
lfoot -41.0355 0.976292
ltoes -40.5804
